<svg width="40" height="40" viewBox="0 0 40 40" fill="none" xmlns="http://www.w3.org/2000/svg">
<circle cx="20" cy="20" r="19.5" fill="white" stroke="#E0E0E0"/>
<path fill-rule="evenodd" clip-rule="evenodd" d="M25.204 18.796L27 17C27.5453 16.4548 27.8179 16.1821 27.9636 15.888C28.2409 15.3285 28.2409 14.6715 27.9636 14.112C27.8179 13.8179 27.5453 13.5453 27 13C26.4548 12.4548 26.1821 12.1821 25.888 12.0364C25.3285 11.7591 24.6715 11.7591 24.112 12.0364C23.8179 12.1821 23.5453 12.4548 23 13L21.1814 14.8187C22.1452 16.4693 23.5314 17.8448 25.204 18.796ZM19.7269 16.2731L12.8564 23.1436C12.4313 23.5687 12.2188 23.7812 12.0791 24.0423C11.9393 24.3034 11.8804 24.5981 11.7625 25.1876L11.1471 28.2646C11.0806 28.5972 11.0473 28.7635 11.1419 28.8581C11.2365 28.9527 11.4028 28.9194 11.7355 28.8529L14.8124 28.2375C15.4019 28.1196 15.6966 28.0607 15.9577 27.9209C16.2188 27.7812 16.4313 27.5687 16.8564 27.1436L23.7458 20.2542C22.1241 19.2386 20.7524 17.8763 19.7269 16.2731Z" fill="#004CE8"/>
</svg>
