<svg width="22" height="20" viewBox="0 0 22 20" fill="none" xmlns="http://www.w3.org/2000/svg">
<path fill-rule="evenodd" clip-rule="evenodd" d="M0.25 1C0.25 0.585786 0.585786 0.25 1 0.25H14C14.4142 0.25 14.75 0.585786 14.75 1V19C14.75 19.4142 14.4142 19.75 14 19.75H1C0.585786 19.75 0.25 19.4142 0.25 19V1ZM1.75 1.75V18.25H13.25V1.75H1.75Z" fill="white"/>
<path fill-rule="evenodd" clip-rule="evenodd" d="M5 0.25C5.41421 0.25 5.75 0.585786 5.75 1V19C5.75 19.4142 5.41421 19.75 5 19.75C4.58579 19.75 4.25 19.4142 4.25 19V1C4.25 0.585786 4.58579 0.25 5 0.25Z" fill="white"/>
<path fill-rule="evenodd" clip-rule="evenodd" d="M16.25 1C16.25 0.585786 16.5858 0.25 17 0.25H21C21.4142 0.25 21.75 0.585786 21.75 1V17C21.75 17.1989 21.671 17.3897 21.5303 17.5303L19.5303 19.5303C19.2374 19.8232 18.7626 19.8232 18.4697 19.5303L16.4697 17.5303C16.329 17.3897 16.25 17.1989 16.25 17V1ZM17.75 1.75V16.6893L19 17.9393L20.25 16.6893V1.75H17.75Z" fill="white"/>
<path fill-rule="evenodd" clip-rule="evenodd" d="M16.25 4C16.25 3.58579 16.5858 3.25 17 3.25H21C21.4142 3.25 21.75 3.58579 21.75 4C21.75 4.41421 21.4142 4.75 21 4.75H17C16.5858 4.75 16.25 4.41421 16.25 4Z" fill="white"/>
<path fill-rule="evenodd" clip-rule="evenodd" d="M0.25 1C0.25 0.585786 0.585786 0.25 1 0.25H14C14.4142 0.25 14.75 0.585786 14.75 1C14.75 1.41421 14.4142 1.75 14 1.75H1C0.585786 1.75 0.25 1.41421 0.25 1Z" fill="white"/>
<path fill-rule="evenodd" clip-rule="evenodd" d="M0.25 19C0.25 18.5858 0.585786 18.25 1 18.25H14C14.4142 18.25 14.75 18.5858 14.75 19C14.75 19.4142 14.4142 19.75 14 19.75H1C0.585786 19.75 0.25 19.4142 0.25 19Z" fill="white"/>
<path fill-rule="evenodd" clip-rule="evenodd" d="M17 0.25C17.4142 0.25 17.75 0.585786 17.75 1V9C17.75 9.41421 17.4142 9.75 17 9.75C16.5858 9.75 16.25 9.41421 16.25 9V1C16.25 0.585786 16.5858 0.25 17 0.25Z" fill="white"/>
<path fill-rule="evenodd" clip-rule="evenodd" d="M21 0.25C21.4142 0.25 21.75 0.585786 21.75 1V9C21.75 9.41421 21.4142 9.75 21 9.75C20.5858 9.75 20.25 9.41421 20.25 9V1C20.25 0.585786 20.5858 0.25 21 0.25Z" fill="white"/>
</svg>
