<svg width="22" height="22" viewBox="0 0 22 22" fill="none" xmlns="http://www.w3.org/2000/svg">
<path d="M16.882 18.2969C15.1232 19.4125 13.0827 20.0033 11 19.9999C5.608 19.9999 1.122 16.1199 0.181 10.9999C0.611029 8.67066 1.78263 6.54284 3.521 4.93394L0.392 1.80794L1.807 0.392944L21.606 20.1929L20.191 21.6069L16.881 18.2969H16.882ZM4.935 6.34994C3.576 7.58553 2.62932 9.20873 2.223 10.9999C2.53529 12.3664 3.16226 13.6411 4.054 14.7225C4.94574 15.804 6.07763 16.6623 7.35955 17.2293C8.64148 17.7962 10.038 18.056 11.4381 17.9881C12.8381 17.9201 14.203 17.5263 15.424 16.8379L13.396 14.8099C12.5327 15.3538 11.5102 15.588 10.4962 15.4744C9.48228 15.3607 8.53704 14.9058 7.81557 14.1844C7.0941 13.4629 6.63923 12.5177 6.52556 11.5037C6.4119 10.4897 6.64618 9.46725 7.19 8.60394L4.935 6.34994ZM11.914 13.3279L8.672 10.0859C8.49406 10.5389 8.45219 11.0339 8.55151 11.5103C8.65082 11.9867 8.88702 12.4237 9.23112 12.7678C9.57522 13.1119 10.0123 13.3481 10.4887 13.4474C10.965 13.5468 11.4601 13.5049 11.913 13.3269L11.914 13.3279ZM19.807 15.5919L18.376 14.1619C19.0445 13.2092 19.5204 12.1351 19.777 10.9999C19.5052 9.80967 18.9943 8.68709 18.2751 7.70044C17.556 6.71379 16.6438 5.88367 15.5939 5.26055C14.544 4.63743 13.3783 4.23431 12.1677 4.07571C10.9572 3.9171 9.72701 4.00632 8.552 4.33794L6.974 2.75994C8.221 2.26994 9.58 1.99994 11 1.99994C16.392 1.99994 20.878 5.87994 21.819 10.9999C21.5126 12.6656 20.8239 14.2375 19.807 15.5919ZM10.723 6.50794C11.3595 6.46861 11.9971 6.56501 12.5935 6.79076C13.19 7.01651 13.7316 7.36646 14.1825 7.81739C14.6335 8.26833 14.9834 8.80997 15.2092 9.4064C15.4349 10.0028 15.5313 10.6404 15.492 11.2769L10.722 6.50794H10.723Z" fill="#BDBDBD"/>
</svg>
