<svg width="22" height="22" viewBox="0 0 22 22" fill="none" xmlns="http://www.w3.org/2000/svg">
<path fill-rule="evenodd" clip-rule="evenodd" d="M0.25 1.5C0.25 1.08579 0.585786 0.75 1 0.75H21C21.4142 0.75 21.75 1.08579 21.75 1.5V14.5C21.75 14.9142 21.4142 15.25 21 15.25H1C0.585786 15.25 0.25 14.9142 0.25 14.5V1.5ZM1.75 2.25V13.75H20.25V2.25H1.75Z" fill="white"/>
<path fill-rule="evenodd" clip-rule="evenodd" d="M9.64611 5.33875C9.88997 5.20823 10.1859 5.22254 10.416 5.37596L13.416 7.37596C13.6247 7.51506 13.75 7.74924 13.75 8C13.75 8.25077 13.6247 8.48494 13.416 8.62404L10.416 10.624C10.1859 10.7775 9.88997 10.7918 9.64611 10.6613C9.40224 10.5307 9.25 10.2766 9.25 10V6C9.25 5.7234 9.40224 5.46926 9.64611 5.33875ZM10.75 7.40139V8.59861L11.6479 8L10.75 7.40139Z" fill="white"/>
<path fill-rule="evenodd" clip-rule="evenodd" d="M1.25 19C1.25 18.5858 1.58579 18.25 2 18.25H4.5C4.91421 18.25 5.25 18.5858 5.25 19C5.25 19.4142 4.91421 19.75 4.5 19.75H2C1.58579 19.75 1.25 19.4142 1.25 19Z" fill="white"/>
<path fill-rule="evenodd" clip-rule="evenodd" d="M6.75 19C6.75 18.5858 7.08579 18.25 7.5 18.25H20C20.4142 18.25 20.75 18.5858 20.75 19C20.75 19.4142 20.4142 19.75 20 19.75H7.5C7.08579 19.75 6.75 19.4142 6.75 19Z" fill="white"/>
<path fill-rule="evenodd" clip-rule="evenodd" d="M6 18.25C5.58576 18.25 5.25 18.5858 5.25 19C5.25 19.4142 5.58576 19.75 6 19.75C6.41424 19.75 6.75 19.4142 6.75 19C6.75 18.5858 6.41424 18.25 6 18.25ZM3.75 19C3.75 17.7573 4.75734 16.75 6 16.75C7.24266 16.75 8.25 17.7573 8.25 19C8.25 20.2427 7.24266 21.25 6 21.25C4.75734 21.25 3.75 20.2427 3.75 19Z" fill="white"/>
</svg>
