<svg width="14" height="14" viewBox="0 0 14 14" fill="none" xmlns="http://www.w3.org/2000/svg">
<path fill-rule="evenodd" clip-rule="evenodd" d="M0.25 6.99585C0.25 6.58164 0.585786 6.24585 1 6.24585H13C13.4142 6.24585 13.75 6.58164 13.75 6.99585C13.75 7.41006 13.4142 7.74585 13 7.74585H1C0.585786 7.74585 0.25 7.41006 0.25 6.99585Z" fill="#616161"/>
<path fill-rule="evenodd" clip-rule="evenodd" d="M7.53033 0.46967C7.82322 0.762563 7.82322 1.23744 7.53033 1.53033L2.06066 7L7.53033 12.4697C7.82322 12.7626 7.82322 13.2374 7.53033 13.5303C7.23744 13.8232 6.76256 13.8232 6.46967 13.5303L0.46967 7.53033C0.176777 7.23744 0.176777 6.76256 0.46967 6.46967L6.46967 0.46967C6.76256 0.176777 7.23744 0.176777 7.53033 0.46967Z" fill="#616161"/>
</svg>
